<?xml version="1.0" standalone="no"?>
<!DOCTYPE svg PUBLIC "-//W3C//DTD SVG 20010904//EN"
 "http://www.w3.org/TR/2001/REC-SVG-20010904/DTD/svg10.dtd">
<svg version="1.0" xmlns="http://www.w3.org/2000/svg"
 width="260.000000pt" height="260.000000pt" viewBox="0 0 260.000000 260.000000"
 preserveAspectRatio="xMidYMid meet">
<metadata>
Created by potrace 1.14, written by Peter Selinger 2001-2017
</metadata>
<g transform="translate(0.000000,260.000000) scale(0.100000,-0.100000)"
fill="#000000" stroke="none">
<path d="M499 2075 c-94 -19 -176 -60 -234 -119 -182 -182 -138 -488 88 -621
26 -15 118 -52 204 -82 210 -72 273 -104 321 -159 111 -125 62 -332 -97 -413
-132 -68 -327 -36 -440 72 -52 50 -133 169 -157 232 -10 26 -23 45 -32 45 -13
0 -14 -25 -9 -202 4 -110 10 -204 13 -207 3 -3 21 12 39 33 l33 40 61 -28 c82
-36 192 -56 316 -56 201 0 335 47 432 153 82 89 113 194 93 318 -14 94 -44
154 -105 214 -62 61 -121 90 -312 156 -303 105 -373 166 -373 325 0 164 117
274 291 274 148 0 298 -118 376 -297 45 -104 53 -87 53 112 l0 175 28 -6 c88
-22 117 -48 132 -120 16 -77 8 -1105 -9 -1156 -15 -48 -51 -75 -123 -95 -34
-10 -58 -22 -58 -30 0 -11 60 -13 320 -13 278 0 320 2 320 15 0 9 -9 15 -24
15 -63 0 -150 52 -171 104 -8 20 -15 118 -20 289 l-7 257 34 0 c139 0 247
-101 479 -449 62 -91 126 -181 142 -199 l31 -32 203 0 c169 0 203 2 203 14 0
8 -14 17 -32 21 -62 14 -136 57 -191 114 -30 31 -115 142 -187 246 -147 211
-170 241 -212 271 l-28 21 84 41 c106 51 167 106 208 189 28 58 31 73 31 154
-1 80 -4 97 -32 154 -49 99 -146 173 -272 206 -28 7 -190 13 -454 16 l-410 5
-31 -37 -31 -38 -64 32 c-118 58 -275 75 -420 46z m1263 -74 c76 -30 158 -105
189 -173 35 -78 34 -202 -2 -279 -64 -135 -197 -204 -409 -211 l-85 -3 3 305
c1 168 5 325 8 349 l6 43 116 -4 c90 -4 130 -10 174 -27z"/>
</g>
</svg>
